<?xml version="1.0" encoding="UTF-8" standalone="no"?>
<!-- Generator: Adobe Illustrator 19.0.0, SVG Export Plug-In . SVG Version: 6.00 Build 0)  -->

<svg
   xmlns:dc="http://purl.org/dc/elements/1.1/"
   xmlns:cc="http://creativecommons.org/ns#"
   xmlns:rdf="http://www.w3.org/1999/02/22-rdf-syntax-ns#"
   xmlns:svg="http://www.w3.org/2000/svg"
   xmlns="http://www.w3.org/2000/svg"
   xmlns:sodipodi="http://sodipodi.sourceforge.net/DTD/sodipodi-0.dtd"
   xmlns:inkscape="http://www.inkscape.org/namespaces/inkscape"
   version="1.1"
   id="Layer_1"
   x="0px"
   y="0px"
   viewBox="0 0 2048 511.99998"
   xml:space="preserve"
   inkscape:version="0.91 r13725"
   sodipodi:docname="splash_img.svg"
   width="2048"
   height="512"
   inkscape:export-filename="/home/khairul/Projects/OpenCombat/sprites/ui/splash_img.png"
   inkscape:export-xdpi="22.5"
   inkscape:export-ydpi="22.5"><metadata
     id="metadata61"><rdf:RDF><cc:Work
         rdf:about=""><dc:format>image/svg+xml</dc:format><dc:type
           rdf:resource="http://purl.org/dc/dcmitype/StillImage" /><dc:title></dc:title></cc:Work></rdf:RDF></metadata><defs
     id="defs59"><filter
       style="color-interpolation-filters:sRGB;"
       inkscape:label="Blur"
       id="filter4294"><feGaussianBlur
         stdDeviation="10 10"
         result="blur"
         id="feGaussianBlur4296" /></filter></defs><sodipodi:namedview
     pagecolor="#ffffff"
     bordercolor="#666666"
     borderopacity="1"
     objecttolerance="10"
     gridtolerance="10"
     guidetolerance="10"
     inkscape:pageopacity="0"
     inkscape:pageshadow="2"
     inkscape:window-width="1366"
     inkscape:window-height="705"
     id="namedview57"
     showgrid="false"
     inkscape:zoom="0.2304701"
     inkscape:cx="49.743663"
     inkscape:cy="258.84416"
     inkscape:window-x="0"
     inkscape:window-y="32"
     inkscape:window-maximized="1"
     inkscape:current-layer="Layer_1" /><g
     id="g4264"
     style="fill:#000000;fill-opacity:1;filter:url(#filter4294)"><path
       style="fill:#000000;stroke:none;stroke-opacity:1;fill-opacity:1"
       d="m 206.77257,261.84038 c 0,0 1.83092,22.05109 20.10939,31.64021 18.27844,9.5892 10.18804,11.98551 10.18804,11.98551 l -22.37703,11.43413 -15.01264,-6.04105 -8.75558,-15.58113 3.59564,-18.87808 12.25218,-14.55959 z"
       id="path4266"
       inkscape:connector-curvature="0" /><g
       id="g4268"
       transform="matrix(0.77979636,0,0,0.77979636,-3.3061623,69.639274)"
       style="stroke:none;stroke-opacity:1;fill:#000000;fill-opacity:1"><path
         style="fill:#000000;stroke:none;stroke-opacity:1;fill-opacity:1"
         d="m 97.002,314.687 c -6.525,17.223 -4.853,36.935 5.28,53.028 l -1.176,0.3 c -8.496,1.66 -17.626,-0.83 -24.209,-7.412 -10.536,-10.537 -10.536,-27.621 0,-38.157 5.441,-5.441 12.635,-8.07 19.759,-7.897 l 0.346,0.138 z"
         id="path4270"
         inkscape:connector-curvature="0" /><path
         style="fill:#000000;stroke:none;stroke-opacity:1;fill-opacity:1"
         d="m 442.989,58.906 -75.9,75.9 -2.167,0.542 c -8.519,-11.597 -7.539,-27.99 2.951,-38.48 l 56.544,-56.533 18.572,18.571 z"
         id="path4272"
         inkscape:connector-curvature="0" /></g><path
       inkscape:connector-curvature="0"
       id="path4274"
       d="m 348.87873,115.57474 c 0,-1.78807 -0.7104,-3.50285 -1.97445,-4.7669 L 332.418,96.321566 l -7.7e-4,7.8e-4 c -0.005,-0.0055 -0.0101,-0.0117 -0.0164,-0.01716 L 308.72623,72.79511 c -2.63649,-2.617777 -6.89106,-2.609979 -9.51897,0.01716 l -3.00612,3.006115 -4.20466,-4.204662 c -2.63181,-2.633372 -6.9012,-2.631812 -9.53379,0 -2.63259,2.633373 -2.63259,6.901978 7.8e-4,9.53535 l 4.2031,4.203103 -202.776683,202.777469 -4.17503,-4.17503 c -2.634152,-2.63338 -6.901977,-2.63338 -9.53535,0 -2.633372,2.63337 -2.633372,6.90119 0,9.53457 l 4.376997,4.37699 c -2.659105,3.26345 -4.905699,6.80841 -6.710927,10.56235 -5.999753,0.80942 -11.64314,3.56678 -15.958533,7.88296 -10.832931,10.83293 -10.832931,28.46022 0,39.29394 5.265965,5.26674 12.33248,8.14185 19.618117,8.14185 0.600443,0 1.204006,-0.0273 1.806788,-0.0663 0.5365,0.71273 1.089376,1.41611 1.664865,2.10467 l 10.336981,12.38082 c 2.29806,2.75424 6.350662,3.22446 9.220312,1.07222 7.268483,-5.45311 16.215863,-7.65838 25.185863,-6.20796 8.97078,1.44887 16.7664,6.35846 21.94971,13.82268 l 48.78016,70.25185 c 4.64837,6.69455 11.96909,10.9499 20.08677,11.67667 0.82425,0.0741 1.64615,0.11073 2.46494,0.11073 7.24587,0 14.19775,-2.85795 19.37638,-8.0358 l 29.80772,-29.80928 c 6.52299,-6.52377 7.50632,-16.80383 2.33705,-24.44427 l -34.13481,-50.45829 c -8.14809,-12.04707 -6.59942,-28.25436 3.68532,-38.53831 l 21.51848,-21.51848 c 12.8682,-12.8682 15.97335,-32.4138 7.72466,-48.63668 l -5.5888,-10.99045 c -3.22836,-6.34988 -2.0532,-13.98331 2.90474,-19.07382 l 31.22617,-31.23942 c 1.26405,-1.26483 1.97444,-2.97882 1.97444,-4.7669 0,-1.78807 -0.71039,-3.50284 -1.97522,-4.76689 l -0.61292,-0.61292 55.66186,-55.66187 c 1.26171,-1.26171 1.97211,-2.97648 1.97211,-4.76455 z M 61.421614,346.0724 c -5.576323,-5.57632 -5.576323,-14.64925 0,-20.22557 0.509987,-0.50999 1.058964,-0.95993 1.625096,-1.38102 -0.207426,1.55491 -0.353248,3.12386 -0.424209,4.70607 -0.304121,6.77175 0.680762,13.45149 2.836119,19.73197 -1.476934,-0.6948 -2.847036,-1.64226 -4.037006,-2.83145 z M 202.87511,276.17224 c 4.64135,11.99483 14.65394,22.33571 26.36804,27.1954 0,0 -1.64069,1.46523 -1.87697,1.68046 -3.36092,3.06928 -7.52036,4.86671 -11.81158,5.08817 -4.31071,0.22146 -8.27364,-1.21336 -11.10586,-4.04558 -7.63108,-7.63031 -7.98823,-20.0938 -1.57363,-29.91845 z m 43.18045,10.38377 -6.00755,6.00755 c -12.71614,-2.05944 -24.90436,-15.07113 -26.31111,-28.16547 l 19.6649,-19.71325 0.0429,0.0429 c 3.17767,-3.13712 6.13544,-4.73804 8.30405,-4.51346 2.40567,0.24953 4.1376,2.77296 4.15398,2.79869 l -0.0554,-0.0873 c 0,0 0.009,-0.0125 0.0211,-0.0296 l 5.42504,10.66917 c 5.5966,11.00449 3.49115,24.26181 -5.23789,32.99085 z M 197.1904,261.89183 c -15.44231,15.44309 -16.46228,39.54815 -2.27701,53.73421 5.17161,5.17161 12.07905,7.98199 19.60252,8.01474 -4.8784,12.99843 -3.47087,27.97988 4.70218,40.06204 l 34.1348,50.45828 c 1.55414,2.29884 1.25859,5.39074 -0.70415,7.35348 L 222.8418,451.3223 c -2.93047,2.92969 -6.9823,4.39571 -11.10586,4.02921 -4.12668,-0.36963 -7.84865,-2.53356 -10.21299,-5.93659 l -48.78016,-70.25264 c -7.28954,-10.49995 -18.25504,-17.40505 -30.87448,-19.44422 -2.38072,-0.38444 -4.75754,-0.57861 -7.11876,-0.602 l 35.75366,-35.75366 c 2.63337,-2.6326 2.63337,-6.90198 0,-9.53379 -2.63415,-2.63338 -6.90198,-2.63338 -9.53535,0 l -50.032513,50.03251 -5.609075,-6.71873 C 75.316806,345.15302 73.411763,329.12509 79.310923,315.65801 l 15.079702,15.0797 c 1.317076,1.31708 3.042765,1.97522 4.767675,1.97522 1.72491,0 3.45138,-0.65814 4.76767,-1.97522 2.63338,-2.63259 2.63338,-6.90198 0,-9.53379 L 86.924854,304.2028 c 0.27059,-0.28697 0.5365,-0.57627 0.817227,-0.857 l 5.769713,-5.76971 17.020616,17.02061 c 1.31708,1.31708 3.04276,1.97523 4.76767,1.97523 1.72491,0 3.45138,-0.65815 4.76768,-1.97523 2.63337,-2.63259 2.63337,-6.90197 0,-9.53379 l -17.02062,-17.02061 6.60644,-6.60644 17.01983,17.02062 c 1.31708,1.31708 3.04199,1.97522 4.76768,1.97522 1.72491,0 3.45138,-0.65814 4.76689,-1.97522 2.63416,-2.63337 2.63416,-6.90198 7.8e-4,-9.53535 l -17.02061,-17.02062 6.60643,-6.60643 17.02062,17.01984 c 1.31707,1.31707 3.04276,1.97522 4.76767,1.97522 1.72491,0 3.45138,-0.65815 4.76768,-1.97522 2.63337,-2.63338 2.63337,-6.90198 0,-9.53458 l -17.02062,-17.02061 168.66294,-168.661375 14.10651,14.008265 -39.30329,39.30329 c -5.63715,5.63793 -8.74386,13.13567 -8.74386,21.10909 0,7.38545 2.66457,14.36229 7.53751,19.83178 l -80.39934,80.54205 z m 86.6073,-97.51276 c -0.16454,-0.93653 -0.26123,-1.891 -0.26123,-2.86107 0,-4.37232 1.70386,-8.48262 4.79497,-11.57452 l 39.31889,-39.31967 4.95249,4.95171 -48.80512,48.80355 z"
       style="fill:#000000;stroke:none;stroke-opacity:1;fill-opacity:1" /><path
       inkscape:connector-curvature="0"
       id="path4276"
       d="m 165.54938,383.26323 c 1.31708,1.31708 3.04277,1.97523 4.76768,1.97523 1.72491,0 3.45138,-0.65815 4.76767,-1.97523 l 27.03632,-27.03632 c 2.63337,-2.63259 2.63337,-6.90119 0,-9.53379 -2.63415,-2.63259 -6.90198,-2.63259 -9.53535,0 l -27.03632,27.03632 c -2.63259,2.63182 -2.63259,6.90042 0,9.53379 z"
       style="fill:#000000;stroke:none;stroke-opacity:1;fill-opacity:1" /><path
       inkscape:connector-curvature="0"
       id="path4278"
       d="m 179.99745,402.61076 c 1.31707,1.31708 3.04276,1.97522 4.76767,1.97522 1.72491,0 3.45138,-0.65814 4.76768,-1.97522 l 25.00885,-25.00885 c 2.63337,-2.63337 2.63337,-6.9012 0,-9.53379 -2.63415,-2.63337 -6.90198,-2.63337 -9.53535,0 l -25.00885,25.00885 c -2.63259,2.63259 -2.63259,6.9012 0,9.53379 z"
       style="fill:#000000;stroke:none;stroke-opacity:1;fill-opacity:1" /><path
       inkscape:connector-curvature="0"
       id="path4280"
       d="m 194.78395,421.62064 c 1.31707,1.31707 3.04276,1.97522 4.76767,1.97522 1.72491,0 3.45138,-0.65815 4.76768,-1.97522 l 22.30529,-22.3053 c 2.63337,-2.63259 2.63337,-6.90198 0,-9.53379 -2.63415,-2.63259 -6.90198,-2.63259 -9.53535,0 l -22.30529,22.3053 c -2.63337,2.63259 -2.63337,6.90197 0,9.53379 z"
       style="fill:#000000;stroke:none;stroke-opacity:1;fill-opacity:1" /><path
       inkscape:connector-curvature="0"
       id="path4282"
       d="m 208.21672,441.98268 c 1.31708,1.31707 3.04199,1.97522 4.76767,1.97522 1.72491,0 3.45138,-0.65815 4.76768,-1.97522 l 22.30529,-22.3053 c 2.63338,-2.63259 2.63338,-6.90197 0,-9.53535 -2.63259,-2.63181 -6.90119,-2.63259 -9.53535,0 l -22.30529,22.3053 c -2.63259,2.63415 -2.63259,6.90354 0,9.53535 z"
       style="fill:#000000;stroke:none;stroke-opacity:1;fill-opacity:1" /><path
       inkscape:connector-curvature="0"
       id="path4284"
       d="m 174.16067,299.70805 c 2.63338,-2.63259 2.63338,-6.90197 -7.8e-4,-9.53535 -2.63181,-2.63259 -6.90119,-2.63181 -9.53457,0 l -7.43536,7.43536 c -2.63337,2.63337 -2.63337,6.90198 7.8e-4,9.53535 1.3163,1.3163 3.04199,1.97523 4.7669,1.97523 1.72491,0 3.45138,-0.65815 4.76767,-1.97523 l 7.43536,-7.43536 z"
       style="fill:#000000;stroke:none;stroke-opacity:1;fill-opacity:1" /><text
       xml:space="preserve"
       style="font-style:normal;font-weight:normal;font-size:262.39733887px;line-height:125%;font-family:sans-serif;letter-spacing:0px;word-spacing:0px;fill:#000000;fill-opacity:1;stroke:#333333;stroke-width:9.44369698;stroke-linecap:butt;stroke-linejoin:miter;stroke-miterlimit:4;stroke-dasharray:none;stroke-opacity:1"
       x="415.8291"
       y="350.35532"
       id="text4286"
       sodipodi:linespacing="125%"><tspan
         sodipodi:role="line"
         id="tspan4288"
         x="415.8291"
         y="350.35532"
         style="font-style:normal;font-variant:normal;font-weight:300;font-stretch:normal;font-family:'Open Sans';-inkscape-font-specification:'Open Sans Light';fill:#000000;fill-opacity:1;stroke:none">OpenCombat</tspan></text>
</g><g
     id="g27"
     transform="matrix(1.4677863,0,0,1.4677863,-709.21254,9.116458)" /><g
     id="g29"
     transform="matrix(1.4677863,0,0,1.4677863,-709.21254,9.116458)" /><g
     id="g31"
     transform="matrix(1.4677863,0,0,1.4677863,-709.21254,9.116458)" /><g
     id="g33"
     transform="matrix(1.4677863,0,0,1.4677863,-709.21254,9.116458)" /><g
     id="g35"
     transform="matrix(1.4677863,0,0,1.4677863,-709.21254,9.116458)" /><g
     id="g37"
     transform="matrix(1.4677863,0,0,1.4677863,-709.21254,9.116458)" /><g
     id="g39"
     transform="matrix(1.4677863,0,0,1.4677863,-709.21254,9.116458)" /><g
     id="g41"
     transform="matrix(1.4677863,0,0,1.4677863,-709.21254,9.116458)" /><g
     id="g43"
     transform="matrix(1.4677863,0,0,1.4677863,-709.21254,9.116458)" /><g
     id="g45"
     transform="matrix(1.4677863,0,0,1.4677863,-709.21254,9.116458)" /><g
     id="g47"
     transform="matrix(1.4677863,0,0,1.4677863,-709.21254,9.116458)" /><g
     id="g49"
     transform="matrix(1.4677863,0,0,1.4677863,-709.21254,9.116458)" /><g
     id="g51"
     transform="matrix(1.4677863,0,0,1.4677863,-709.21254,9.116458)" /><g
     id="g53"
     transform="matrix(1.4677863,0,0,1.4677863,-709.21254,9.116458)" /><g
     id="g55"
     transform="matrix(1.4677863,0,0,1.4677863,-709.21254,9.116458)" /><g
     id="g4250"><path
       inkscape:connector-curvature="0"
       id="path3"
       d="m 206.77257,261.84038 c 0,0 1.83092,22.05109 20.10939,31.64021 18.27844,9.5892 10.18804,11.98551 10.18804,11.98551 l -22.37703,11.43413 -15.01264,-6.04105 -8.75558,-15.58113 3.59564,-18.87808 12.25218,-14.55959 z"
       style="fill:#ffffff;stroke:none;stroke-opacity:1;fill-opacity:1" /><g
       style="stroke:none;stroke-opacity:1;fill:#ffffff;fill-opacity:1"
       transform="matrix(0.77979636,0,0,0.77979636,-3.3061623,69.639274)"
       id="g5"><path
         inkscape:connector-curvature="0"
         id="path7"
         d="m 97.002,314.687 c -6.525,17.223 -4.853,36.935 5.28,53.028 l -1.176,0.3 c -8.496,1.66 -17.626,-0.83 -24.209,-7.412 -10.536,-10.537 -10.536,-27.621 0,-38.157 5.441,-5.441 12.635,-8.07 19.759,-7.897 l 0.346,0.138 z"
         style="fill:#ffffff;stroke:none;stroke-opacity:1;fill-opacity:1" /><path
         inkscape:connector-curvature="0"
         id="path9"
         d="m 442.989,58.906 -75.9,75.9 -2.167,0.542 c -8.519,-11.597 -7.539,-27.99 2.951,-38.48 l 56.544,-56.533 18.572,18.571 z"
         style="fill:#ffffff;stroke:none;stroke-opacity:1;fill-opacity:1" /></g><path
       style="fill:#ffffff;stroke:none;stroke-opacity:1;fill-opacity:1"
       d="m 348.87873,115.57474 c 0,-1.78807 -0.7104,-3.50285 -1.97445,-4.7669 L 332.418,96.321566 l -7.7e-4,7.8e-4 c -0.005,-0.0055 -0.0101,-0.0117 -0.0164,-0.01716 L 308.72623,72.79511 c -2.63649,-2.617777 -6.89106,-2.609979 -9.51897,0.01716 l -3.00612,3.006115 -4.20466,-4.204662 c -2.63181,-2.633372 -6.9012,-2.631812 -9.53379,0 -2.63259,2.633373 -2.63259,6.901978 7.8e-4,9.53535 l 4.2031,4.203103 -202.776683,202.777469 -4.17503,-4.17503 c -2.634152,-2.63338 -6.901977,-2.63338 -9.53535,0 -2.633372,2.63337 -2.633372,6.90119 0,9.53457 l 4.376997,4.37699 c -2.659105,3.26345 -4.905699,6.80841 -6.710927,10.56235 -5.999753,0.80942 -11.64314,3.56678 -15.958533,7.88296 -10.832931,10.83293 -10.832931,28.46022 0,39.29394 5.265965,5.26674 12.33248,8.14185 19.618117,8.14185 0.600443,0 1.204006,-0.0273 1.806788,-0.0663 0.5365,0.71273 1.089376,1.41611 1.664865,2.10467 l 10.336981,12.38082 c 2.29806,2.75424 6.350662,3.22446 9.220312,1.07222 7.268483,-5.45311 16.215863,-7.65838 25.185863,-6.20796 8.97078,1.44887 16.7664,6.35846 21.94971,13.82268 l 48.78016,70.25185 c 4.64837,6.69455 11.96909,10.9499 20.08677,11.67667 0.82425,0.0741 1.64615,0.11073 2.46494,0.11073 7.24587,0 14.19775,-2.85795 19.37638,-8.0358 l 29.80772,-29.80928 c 6.52299,-6.52377 7.50632,-16.80383 2.33705,-24.44427 l -34.13481,-50.45829 c -8.14809,-12.04707 -6.59942,-28.25436 3.68532,-38.53831 l 21.51848,-21.51848 c 12.8682,-12.8682 15.97335,-32.4138 7.72466,-48.63668 l -5.5888,-10.99045 c -3.22836,-6.34988 -2.0532,-13.98331 2.90474,-19.07382 l 31.22617,-31.23942 c 1.26405,-1.26483 1.97444,-2.97882 1.97444,-4.7669 0,-1.78807 -0.71039,-3.50284 -1.97522,-4.76689 l -0.61292,-0.61292 55.66186,-55.66187 c 1.26171,-1.26171 1.97211,-2.97648 1.97211,-4.76455 z M 61.421614,346.0724 c -5.576323,-5.57632 -5.576323,-14.64925 0,-20.22557 0.509987,-0.50999 1.058964,-0.95993 1.625096,-1.38102 -0.207426,1.55491 -0.353248,3.12386 -0.424209,4.70607 -0.304121,6.77175 0.680762,13.45149 2.836119,19.73197 -1.476934,-0.6948 -2.847036,-1.64226 -4.037006,-2.83145 z M 202.87511,276.17224 c 4.64135,11.99483 14.65394,22.33571 26.36804,27.1954 0,0 -1.64069,1.46523 -1.87697,1.68046 -3.36092,3.06928 -7.52036,4.86671 -11.81158,5.08817 -4.31071,0.22146 -8.27364,-1.21336 -11.10586,-4.04558 -7.63108,-7.63031 -7.98823,-20.0938 -1.57363,-29.91845 z m 43.18045,10.38377 -6.00755,6.00755 c -12.71614,-2.05944 -24.90436,-15.07113 -26.31111,-28.16547 l 19.6649,-19.71325 0.0429,0.0429 c 3.17767,-3.13712 6.13544,-4.73804 8.30405,-4.51346 2.40567,0.24953 4.1376,2.77296 4.15398,2.79869 l -0.0554,-0.0873 c 0,0 0.009,-0.0125 0.0211,-0.0296 l 5.42504,10.66917 c 5.5966,11.00449 3.49115,24.26181 -5.23789,32.99085 z M 197.1904,261.89183 c -15.44231,15.44309 -16.46228,39.54815 -2.27701,53.73421 5.17161,5.17161 12.07905,7.98199 19.60252,8.01474 -4.8784,12.99843 -3.47087,27.97988 4.70218,40.06204 l 34.1348,50.45828 c 1.55414,2.29884 1.25859,5.39074 -0.70415,7.35348 L 222.8418,451.3223 c -2.93047,2.92969 -6.9823,4.39571 -11.10586,4.02921 -4.12668,-0.36963 -7.84865,-2.53356 -10.21299,-5.93659 l -48.78016,-70.25264 c -7.28954,-10.49995 -18.25504,-17.40505 -30.87448,-19.44422 -2.38072,-0.38444 -4.75754,-0.57861 -7.11876,-0.602 l 35.75366,-35.75366 c 2.63337,-2.6326 2.63337,-6.90198 0,-9.53379 -2.63415,-2.63338 -6.90198,-2.63338 -9.53535,0 l -50.032513,50.03251 -5.609075,-6.71873 C 75.316806,345.15302 73.411763,329.12509 79.310923,315.65801 l 15.079702,15.0797 c 1.317076,1.31708 3.042765,1.97522 4.767675,1.97522 1.72491,0 3.45138,-0.65814 4.76767,-1.97522 2.63338,-2.63259 2.63338,-6.90198 0,-9.53379 L 86.924854,304.2028 c 0.27059,-0.28697 0.5365,-0.57627 0.817227,-0.857 l 5.769713,-5.76971 17.020616,17.02061 c 1.31708,1.31708 3.04276,1.97523 4.76767,1.97523 1.72491,0 3.45138,-0.65815 4.76768,-1.97523 2.63337,-2.63259 2.63337,-6.90197 0,-9.53379 l -17.02062,-17.02061 6.60644,-6.60644 17.01983,17.02062 c 1.31708,1.31708 3.04199,1.97522 4.76768,1.97522 1.72491,0 3.45138,-0.65814 4.76689,-1.97522 2.63416,-2.63337 2.63416,-6.90198 7.8e-4,-9.53535 l -17.02061,-17.02062 6.60643,-6.60643 17.02062,17.01984 c 1.31707,1.31707 3.04276,1.97522 4.76767,1.97522 1.72491,0 3.45138,-0.65815 4.76768,-1.97522 2.63337,-2.63338 2.63337,-6.90198 0,-9.53458 l -17.02062,-17.02061 168.66294,-168.661375 14.10651,14.008265 -39.30329,39.30329 c -5.63715,5.63793 -8.74386,13.13567 -8.74386,21.10909 0,7.38545 2.66457,14.36229 7.53751,19.83178 l -80.39934,80.54205 z m 86.6073,-97.51276 c -0.16454,-0.93653 -0.26123,-1.891 -0.26123,-2.86107 0,-4.37232 1.70386,-8.48262 4.79497,-11.57452 l 39.31889,-39.31967 4.95249,4.95171 -48.80512,48.80355 z"
       id="path15"
       inkscape:connector-curvature="0" /><path
       style="fill:#ffffff;stroke:none;stroke-opacity:1;fill-opacity:1"
       d="m 165.54938,383.26323 c 1.31708,1.31708 3.04277,1.97523 4.76768,1.97523 1.72491,0 3.45138,-0.65815 4.76767,-1.97523 l 27.03632,-27.03632 c 2.63337,-2.63259 2.63337,-6.90119 0,-9.53379 -2.63415,-2.63259 -6.90198,-2.63259 -9.53535,0 l -27.03632,27.03632 c -2.63259,2.63182 -2.63259,6.90042 0,9.53379 z"
       id="path17"
       inkscape:connector-curvature="0" /><path
       style="fill:#ffffff;stroke:none;stroke-opacity:1;fill-opacity:1"
       d="m 179.99745,402.61076 c 1.31707,1.31708 3.04276,1.97522 4.76767,1.97522 1.72491,0 3.45138,-0.65814 4.76768,-1.97522 l 25.00885,-25.00885 c 2.63337,-2.63337 2.63337,-6.9012 0,-9.53379 -2.63415,-2.63337 -6.90198,-2.63337 -9.53535,0 l -25.00885,25.00885 c -2.63259,2.63259 -2.63259,6.9012 0,9.53379 z"
       id="path19"
       inkscape:connector-curvature="0" /><path
       style="fill:#ffffff;stroke:none;stroke-opacity:1;fill-opacity:1"
       d="m 194.78395,421.62064 c 1.31707,1.31707 3.04276,1.97522 4.76767,1.97522 1.72491,0 3.45138,-0.65815 4.76768,-1.97522 l 22.30529,-22.3053 c 2.63337,-2.63259 2.63337,-6.90198 0,-9.53379 -2.63415,-2.63259 -6.90198,-2.63259 -9.53535,0 l -22.30529,22.3053 c -2.63337,2.63259 -2.63337,6.90197 0,9.53379 z"
       id="path21"
       inkscape:connector-curvature="0" /><path
       style="fill:#ffffff;stroke:none;stroke-opacity:1;fill-opacity:1"
       d="m 208.21672,441.98268 c 1.31708,1.31707 3.04199,1.97522 4.76767,1.97522 1.72491,0 3.45138,-0.65815 4.76768,-1.97522 l 22.30529,-22.3053 c 2.63338,-2.63259 2.63338,-6.90197 0,-9.53535 -2.63259,-2.63181 -6.90119,-2.63259 -9.53535,0 l -22.30529,22.3053 c -2.63259,2.63415 -2.63259,6.90354 0,9.53535 z"
       id="path23"
       inkscape:connector-curvature="0" /><path
       style="fill:#ffffff;stroke:none;stroke-opacity:1;fill-opacity:1"
       d="m 174.16067,299.70805 c 2.63338,-2.63259 2.63338,-6.90197 -7.8e-4,-9.53535 -2.63181,-2.63259 -6.90119,-2.63181 -9.53457,0 l -7.43536,7.43536 c -2.63337,2.63337 -2.63337,6.90198 7.8e-4,9.53535 1.3163,1.3163 3.04199,1.97523 4.7669,1.97523 1.72491,0 3.45138,-0.65815 4.76767,-1.97523 l 7.43536,-7.43536 z"
       id="path25"
       inkscape:connector-curvature="0" /><text
       sodipodi:linespacing="125%"
       id="text4213"
       y="350.35532"
       x="415.8291"
       style="font-style:normal;font-weight:normal;font-size:262.39733887px;line-height:125%;font-family:sans-serif;letter-spacing:0px;word-spacing:0px;fill:#ffffff;fill-opacity:1;stroke:#333333;stroke-width:9.44369698;stroke-linecap:butt;stroke-linejoin:miter;stroke-miterlimit:4;stroke-dasharray:none;stroke-opacity:1;"
       xml:space="preserve"><tspan
         style="font-style:normal;font-variant:normal;font-weight:300;font-stretch:normal;font-family:'Open Sans';-inkscape-font-specification:'Open Sans Light';fill:#ffffff;fill-opacity:1;stroke:none;"
         y="350.35532"
         x="415.8291"
         id="tspan4215"
         sodipodi:role="line">OpenCombat</tspan></text>
</g></svg>